<?xml version="1.0" standalone="no"?>
<!DOCTYPE svg PUBLIC "-//W3C//DTD SVG 20010904//EN"
 "http://www.w3.org/TR/2001/REC-SVG-20010904/DTD/svg10.dtd">
<svg version="1.0" xmlns="http://www.w3.org/2000/svg"
 width="360.000000pt" height="360.000000pt" viewBox="0 0 360.000000 360.000000"
 preserveAspectRatio="xMidYMid meet">

<g transform="translate(0.000000,360.000000) scale(0.100000,-0.100000)"
fill="#000000" stroke="none">
<path d="M1796 3403 c-4 -17 -27 -60 -51 -95 -48 -68 -54 -91 -29 -126 40 -58
115 -64 166 -15 38 37 37 79 -3 129 -18 22 -42 61 -54 89 l-22 50 -7 -32z"/>
<path d="M1344 2714 c-9 -25 -18 -65 -18 -90 -1 -39 3 -50 32 -75 24 -21 42
-29 71 -29 21 0 52 -7 67 -15 36 -18 42 -18 78 0 15 8 46 15 67 15 21 0 41 5
45 11 13 21 151 -9 172 -38 12 -17 2 -18 -243 -21 l-255 -2 0 -55 0 -55 430 0
430 0 0 55 0 55 -126 0 c-96 0 -125 3 -122 13 5 15 38 31 96 48 32 9 48 9 67
1 69 -32 142 9 152 83 3 28 1 44 -8 52 -8 5 -61 13 -119 16 -58 3 -168 13
-245 21 -77 8 -221 22 -320 31 -99 8 -192 17 -207 20 -24 4 -28 -1 -44 -41z
m147 -54 c29 -16 26 -67 -5 -81 -50 -23 -90 36 -50 75 18 19 28 20 55 6z m187
-34 c4 -33 -13 -56 -42 -56 -47 0 -63 57 -25 84 30 20 63 6 67 -28z m158 26
c33 -23 12 -82 -30 -82 -28 0 -46 18 -46 45 0 37 44 59 76 37z m179 -12 c15
-17 16 -24 7 -46 -10 -20 -18 -25 -44 -22 -40 4 -56 28 -40 62 14 32 51 35 77
6z m169 1 c37 -41 -14 -97 -60 -66 -28 18 -31 46 -8 69 21 21 47 20 68 -3z"/>
<path d="M1020 2228 c-49 -81 -47 -184 5 -246 19 -22 25 -42 25 -76 l0 -46
423 0 c403 0 425 -1 462 -20 49 -25 68 -25 124 0 38 18 65 20 247 20 l204 0 0
33 c0 27 6 36 39 54 49 28 81 91 81 157 0 53 -16 90 -55 126 l-27 25 -754 3
-754 2 -20 -32z m265 -73 c33 -32 33 -78 0 -110 -72 -73 -178 28 -114 109 28
35 80 36 114 1z m290 0 c73 -72 -28 -178 -109 -114 -55 43 -18 139 54 139 19
0 40 -9 55 -25z m286 -4 c34 -35 37 -68 8 -105 -26 -33 -88 -37 -119 -6 -35
35 -22 112 23 130 38 15 58 11 88 -19z m293 0 c9 -10 19 -31 22 -49 5 -26 1
-36 -25 -63 -27 -26 -37 -30 -64 -25 -77 15 -95 121 -25 151 36 14 71 9 92
-14z m271 13 c24 -10 46 -60 39 -89 -8 -31 -49 -65 -78 -65 -52 0 -94 59 -75
107 17 46 65 66 114 47z"/>
<path d="M1050 1650 l0 -130 583 -1 c322 -1 569 -5 552 -9 -16 -5 -309 -25
-650 -45 -809 -48 -760 -43 -790 -71 -21 -19 -25 -32 -25 -79 0 -64 15 -106
55 -153 46 -54 98 -76 191 -78 70 -1 86 -5 125 -30 62 -41 137 -41 197 0 37
25 52 29 120 30 63 1 87 6 131 29 68 34 98 34 161 2 28 -14 77 -29 110 -33 55
-8 64 -13 109 -60 27 -28 62 -54 78 -57 15 -4 33 -8 38 -10 6 -2 -272 -4 -617
-4 l-628 -1 0 -45 0 -45 978 2 977 3 3 43 3 42 -338 1 c-242 1 -328 4 -303 11
44 13 87 43 95 68 9 27 56 50 102 50 21 0 62 11 91 25 66 31 101 31 155 3 32
-17 59 -22 112 -22 80 0 115 14 169 70 85 87 87 255 5 331 -50 45 -91 54 -215
47 l-114 -7 0 127 0 126 -730 0 -730 0 0 -130z m1677 -252 c33 -31 32 -90 -3
-117 -49 -38 -115 -16 -130 43 -6 26 17 81 38 89 31 13 73 6 95 -15z m-283
-18 c27 -26 25 -86 -3 -113 -42 -42 -121 -19 -135 39 -20 78 80 131 138 74z
m-303 -3 c44 -34 47 -89 7 -127 -49 -45 -131 -7 -131 62 0 57 79 100 124 65z
m-271 -35 c25 -32 25 -63 0 -95 -26 -33 -63 -41 -99 -23 -31 16 -41 34 -41 71
0 38 11 56 42 70 39 16 74 8 98 -23z m-295 -7 c73 -72 -28 -178 -109 -114 -55
43 -18 139 54 139 19 0 40 -9 55 -25z m-286 -21 c37 -47 24 -102 -29 -124 -24
-10 -36 -10 -60 0 -81 34 -58 150 30 150 30 0 43 -6 59 -26z m-294 -9 c51 -50
18 -135 -52 -135 -63 0 -106 75 -70 121 34 44 87 50 122 14z"/>
<path d="M790 560 l0 -40 978 2 977 3 0 35 0 35 -977 3 -978 2 0 -40z"/>
<path d="M700 225 l0 -75 1113 2 1112 3 0 70 0 70 -1112 3 -1113 2 0 -75z"/>
</g>
</svg>
